<?xml version="1.0" standalone="no"?>
<!DOCTYPE svg PUBLIC "-//W3C//DTD SVG 20010904//EN"
 "http://www.w3.org/TR/2001/REC-SVG-20010904/DTD/svg10.dtd">
<svg version="1.0" xmlns="http://www.w3.org/2000/svg"
 width="633.000000pt" height="390.000000pt" viewBox="0 0 633.000000 390.000000"
 preserveAspectRatio="xMidYMid meet">
<metadata>
Created by potrace 1.16, written by Peter Selinger 2001-2019
</metadata>
<g transform="translate(0.000000,390.000000) scale(0.100000,-0.100000)"
fill="#000000" stroke="none">
<path d="M0 3226 c0 -39 3 -40 133 -51 l77 -7 0 -153 c0 -151 0 -154 -22 -158
l-23 -4 23 -2 c20 -1 22 -6 22 -64 l0 -62 -45 3 c-25 2 -61 1 -80 -2 l-34 -7
2 -89 2 -90 235 0 c129 0 245 -3 258 -6 l23 -7 -3 -216 -3 -216 -40 -3 c-22
-2 -44 -8 -50 -13 -7 -7 5 -10 35 -7 l45 3 3 -44 c3 -33 0 -41 -10 -35 -7 4
-10 4 -6 -1 10 -10 -11 -47 -22 -40 -13 8 -70 -23 -70 -38 0 -8 -4 -7 -10 3
-8 13 -10 12 -10 -2 0 -11 8 -18 20 -18 11 0 20 -5 20 -11 0 -5 4 -7 10 -4 6
3 11 -4 11 -17 3 -51 -2 -113 -10 -121 -5 -5 -34 -10 -64 -11 -30 -1 -62 -8
-71 -15 -12 -11 -21 -10 -46 2 -28 15 -29 14 -20 -3 6 -10 10 -27 10 -37 -1
-12 -5 -8 -15 12 -9 20 -14 24 -14 13 -1 -21 -5 -22 -31 -5 -17 10 -22 9 -31
-3 -7 -11 -9 -6 -4 18 4 21 3 32 -5 32 -6 0 -9 -4 -6 -9 4 -5 2 -20 -3 -32
l-8 -24 -7 22 c-4 12 -2 32 4 43 6 12 8 30 4 43 -9 25 -6 50 6 57 5 3 5 12 -1
20 -8 13 -10 13 -20 0 -8 -11 -12 -12 -15 -3 -6 14 -60 7 -83 -11 -12 -9 -13
-8 -8 7 7 20 7 20 -27 7 -29 -11 -33 -34 -11 -56 8 -9 14 -23 14 -32 -1 -15
-2 -15 -6 1 -2 9 -8 17 -13 17 -14 0 -11 -183 3 -192 9 -6 9 -8 0 -8 -7 0 -13
-9 -13 -19 0 -18 5 -19 57 -14 62 7 107 25 95 39 -4 4 0 3 10 -4 19 -15 31 -2
22 25 -4 13 -3 14 4 5 5 -8 13 -14 18 -13 5 0 8 -10 6 -22 -2 -18 0 -19 8 -7
8 13 13 13 31 2 21 -13 21 -12 15 14 -4 16 -13 32 -19 36 -6 4 -8 10 -5 14 4
3 20 -3 36 -14 16 -12 40 -23 53 -26 23 -4 25 -1 21 25 -4 25 0 31 32 44 45
19 48 19 45 -2 -3 -30 1 -43 11 -43 6 0 10 9 10 20 0 23 15 27 24 5 4 -10 20
-15 51 -15 l45 0 0 -55 c0 -48 2 -55 20 -55 16 0 20 7 20 30 0 29 1 30 51 30
41 0 52 -3 56 -19 5 -19 40 -31 90 -31 22 0 24 3 18 28 -6 26 -6 26 9 7 14
-19 15 -19 16 -2 0 23 -22 46 -50 50 -12 2 -25 9 -29 16 -5 8 -18 10 -34 5
-24 -5 -27 -3 -26 17 0 13 3 18 6 12 2 -7 20 -13 38 -13 19 0 37 -5 41 -11 4
-8 9 -8 13 -1 4 6 25 12 48 13 23 2 45 9 47 16 3 7 18 11 34 10 33 -2 33 -27
1 -27 -10 0 -19 -5 -19 -11 0 -5 -5 -7 -11 -3 -6 3 -10 -1 -9 -12 5 -48 -1
-85 -12 -82 -7 3 -15 13 -16 23 -3 10 0 15 7 11 6 -4 11 -2 11 3 0 14 -17 14
-25 0 -11 -16 16 -71 31 -65 7 3 15 2 18 -2 2 -4 47 -3 100 2 70 7 95 13 92
22 -3 7 2 18 10 25 8 6 12 20 9 29 -4 13 2 19 26 24 17 3 42 6 55 6 12 0 26 5
29 11 11 17 -1 22 -24 9 -18 -9 -23 -7 -33 15 -9 19 -14 22 -24 14 -8 -6 -21
-9 -29 -5 -16 6 -21 41 -6 50 5 4 8 14 6 24 -2 9 -4 19 -4 22 -1 3 -6 -2 -12
-10 -8 -11 -12 -12 -16 -2 -2 6 -12 12 -20 12 -10 0 -13 6 -9 16 3 9 6 17 6
20 0 2 14 1 31 -3 29 -5 31 -4 24 16 -4 13 -1 29 6 39 11 14 11 15 -1 5 -19
-17 -49 -18 -32 -1 17 17 16 131 0 126 -7 -3 -14 -22 -16 -44 -5 -85 -12 -105
-32 -99 -10 3 -21 1 -25 -5 -3 -6 -11 -8 -16 -5 -5 4 -9 -1 -9 -9 0 -9 5 -16
11 -16 8 0 8 -5 -1 -15 -7 -8 -18 -15 -25 -15 -16 0 -27 40 -12 41 7 0 2 4
-10 9 -13 5 -23 18 -23 29 0 11 -4 23 -10 26 -5 3 -10 15 -10 26 0 11 -7 19
-17 20 -32 2 -38 4 -61 17 -13 8 -31 10 -40 6 -9 -4 -24 -8 -32 -8 -8 -1 -21
-5 -27 -9 -9 -6 -13 -1 -13 15 0 13 -4 18 -8 12 -4 -6 -15 -13 -24 -17 -13 -5
-18 -1 -18 11 0 11 -8 18 -20 18 -11 0 -20 -4 -20 -8 0 -4 -4 -8 -10 -8 -5 0
-10 23 -10 50 0 50 0 50 33 51 17 0 55 2 82 4 28 2 136 6 240 10 105 3 206 8
225 10 19 2 45 4 58 4 12 1 22 6 22 11 0 6 -21 8 -52 5 -29 -3 -135 -7 -234
-10 -100 -2 -225 -7 -278 -11 l-96 -7 -2 139 c-2 76 -3 176 -3 221 l0 83 33 0
32 0 0 89 0 90 -30 3 -30 3 -6 233 -6 232 27 0 c35 0 590 -49 632 -56 l33 -5
0 -327 c0 -509 -10 -821 -27 -815 -7 3 -13 0 -13 -6 0 -6 3 -10 8 -10 19 3 23
-2 12 -16 -7 -8 -21 -15 -31 -15 -25 0 -24 -11 2 -33 20 -18 21 -18 14 4 -7
21 -6 22 9 7 27 -28 16 -194 -17 -245 -5 -8 -3 -13 4 -13 7 0 9 -10 7 -25 -5
-26 6 -35 15 -12 3 6 6 2 6 -11 1 -21 -3 -23 -39 -21 -21 2 -42 0 -46 -4 -4
-4 16 -7 44 -7 44 0 52 -3 52 -19 0 -10 -7 -24 -15 -31 -8 -7 -12 -16 -9 -21
3 -5 0 -9 -5 -9 -6 0 -11 -8 -11 -17 0 -13 3 -14 12 -5 16 16 28 15 28 -3 0
-8 -8 -15 -17 -15 -9 0 -24 -7 -33 -15 -16 -14 -18 -14 -23 0 -4 8 -2 15 4 15
6 0 7 5 4 10 -11 17 -25 11 -35 -15 -5 -14 -12 -25 -15 -25 -4 0 -3 5 0 10 4
6 2 17 -4 24 -6 7 -8 21 -5 31 6 15 5 16 -15 4 -11 -8 -22 -18 -23 -24 0 -5
-2 -14 -3 -20 -2 -5 -3 -15 -4 -21 0 -7 -27 -15 -58 -18 -125 -14 -143 -18
-143 -32 0 -7 9 -12 19 -11 11 0 18 4 16 7 -2 3 42 5 97 5 55 0 102 3 104 7 3
5 12 8 19 8 12 0 11 -7 -5 -35 -13 -24 -16 -35 -7 -35 17 0 39 15 38 26 -1 5
5 9 12 9 6 0 16 5 20 10 5 6 5 0 2 -12 -5 -16 -2 -23 8 -23 8 0 18 10 21 23
12 44 31 57 89 61 48 3 55 2 50 -13 -3 -9 3 -5 13 8 14 20 15 26 4 29 -8 3
-24 16 -37 28 -13 13 -30 24 -38 24 -20 0 -21 76 -2 83 9 3 16 29 20 69 3 35
9 71 12 81 5 12 2 17 -9 17 -10 0 -13 -6 -10 -15 5 -11 2 -13 -10 -9 -14 6
-16 70 -16 681 l0 675 103 -7 c56 -3 111 -9 121 -12 19 -5 19 -19 12 -557 -4
-303 -8 -564 -11 -581 -2 -16 -1 -45 2 -62 4 -27 10 -33 29 -33 24 0 24 2 24
91 0 68 3 90 12 86 7 -2 12 -9 11 -15 -2 -6 13 -19 32 -28 20 -9 38 -21 42
-27 3 -6 1 -7 -5 -3 -8 4 -10 2 -6 -7 3 -9 -3 -17 -17 -20 -13 -4 -20 -9 -17
-13 11 -10 48 6 48 22 0 8 5 14 11 14 5 0 7 5 4 10 -3 6 1 10 10 10 9 0 14 -4
10 -10 -3 -5 1 -26 10 -46 13 -33 13 -35 0 -24 -12 10 -19 10 -27 2 -7 -7 -8
-12 -2 -12 5 0 2 -5 -6 -10 -11 -7 0 -10 38 -10 48 0 54 2 72 33 22 36 26 71
8 65 -7 -3 -15 -15 -19 -29 -6 -22 -7 -21 -8 8 -1 24 -6 32 -23 35 -12 2 -22
11 -24 22 -3 23 -26 39 -35 25 -4 -7 -9 -5 -12 5 -7 18 -55 51 -64 43 -3 -4
-1 -12 5 -20 7 -8 7 -18 2 -27 -8 -12 -10 -12 -16 3 -3 9 -11 17 -18 17 -7 0
-12 21 -13 54 l-2 53 60 -2 c49 -2 59 0 55 12 -3 8 -6 19 -6 24 0 5 -4 9 -10
9 -5 0 -10 -7 -10 -15 0 -11 -12 -15 -44 -15 l-44 0 -7 253 c-3 138 -5 344 -3
457 l3 205 45 0 c25 0 87 -4 138 -8 l92 -9 0 31 c0 25 -4 31 -22 31 -28 0
-1218 109 -1578 145 -140 14 -263 25 -272 25 -14 0 -18 -8 -18 -34z m503 -82
l67 -7 0 -208 0 -209 -37 0 c-21 0 -62 3 -90 6 l-53 7 0 63 c0 36 -4 64 -10
64 -6 0 -10 -28 -10 -64 l0 -64 -51 -4 c-28 -1 -53 -1 -55 1 -2 2 -4 31 -4 63
l0 58 38 2 37 1 -37 4 -38 4 0 151 0 151 88 -7 c48 -3 117 -9 155 -12z"/>
<path d="M1900 3211 c0 -6 5 -11 10 -11 6 0 11 -17 11 -37 l2 -38 6 35 c9 48
21 16 21 -55 0 -81 20 -79 21 2 l1 68 8 -53 c10 -70 20 -77 21 -16 l1 49 10
-52 c5 -29 14 -53 19 -53 5 0 10 26 11 58 l2 57 3 -55 c5 -75 23 -90 23 -19 1
52 1 53 15 29 8 -14 14 -37 15 -52 0 -16 4 -28 9 -28 5 0 12 -8 14 -17 3 -10
6 14 8 52 2 62 3 64 6 21 2 -27 10 -54 17 -61 25 -25 36 -1384 12 -1485 -11
-51 -13 -53 -20 -27 -8 35 -37 33 -47 -3 -4 -16 -7 -19 -8 -7 -1 21 -9 22 -31
2 -9 -8 -28 -16 -43 -17 -14 -1 -23 -6 -20 -12 3 -5 1 -6 -5 -2 -8 5 -8 15 -1
34 6 15 12 57 13 93 2 60 1 66 -16 61 -10 -2 -23 -13 -29 -24 -5 -10 -14 -16
-20 -13 -5 4 -6 11 -3 17 4 7 2 8 -4 4 -7 -4 -12 -1 -12 8 0 21 -16 21 -24 0
-4 -11 1 -18 14 -21 26 -7 26 -23 0 -23 -23 0 -26 -10 -8 -28 9 -9 8 -12 -5
-12 -10 0 -23 -11 -29 -25 -11 -25 -18 -29 -50 -26 -18 2 -42 -32 -30 -43 3
-4 0 -11 -8 -17 -13 -8 -13 -10 0 -20 13 -9 13 -10 -1 -6 -9 3 -27 0 -41 -7
-13 -7 -46 -16 -73 -21 -28 -4 -68 -11 -90 -15 l-40 -7 38 -2 37 -1 -6 -57
c-4 -32 -4 -55 -1 -52 4 3 9 27 12 54 4 27 8 52 11 56 2 4 43 12 91 19 49 6
103 15 121 20 22 6 32 5 32 -3 0 -8 3 -8 9 1 8 14 111 45 111 34 0 -4 4 -1 9
7 6 9 49 16 137 23 125 10 130 12 152 40 48 58 69 63 267 63 l181 0 39 34 40
33 -58 -5 c-73 -7 -145 15 -152 46 -9 46 -45 236 -45 239 0 2 -17 2 -37 -1
l-38 -5 30 -7 c29 -7 29 -7 -7 -8 -21 0 -38 -6 -38 -12 0 -5 -5 -7 -11 -4 -6
4 -8 13 -6 19 6 15 -9 43 -18 34 -4 -3 -8 -14 -9 -25 -2 -14 -12 -18 -52 -19
l-49 -2 40 8 40 7 -42 2 c-25 0 -43 -4 -46 -11 -3 -8 -6 -6 -6 5 -1 12 7 17
25 17 14 0 23 4 20 9 -8 13 -89 10 -98 -3 -4 -6 -8 -95 -8 -198 0 -156 -2
-188 -14 -188 -16 0 -20 17 -35 130 -12 93 -14 1391 -2 1372 5 -9 10 10 14 50
3 35 3 66 -1 69 -4 4 -63 12 -132 18 -69 7 -137 14 -152 17 -17 3 -28 1 -28
-5z"/>
<path d="M4315 3205 c-55 -13 -469 -89 -625 -116 -36 -6 -95 -17 -132 -25 -92
-19 -106 -18 -111 9 l-4 22 -2 -22 c-1 -18 -7 -23 -28 -23 l-28 -1 28 -15 c21
-12 27 -22 27 -49 0 -19 5 -35 10 -35 6 0 10 -35 11 -82 1 -54 4 -74 8 -58 5
14 6 47 3 73 -4 41 -1 51 19 69 29 25 81 48 109 48 11 0 20 4 20 8 0 5 55 14
123 21 156 16 177 20 177 36 0 10 51 28 72 26 2 -1 31 8 65 18 35 11 72 17 83
14 11 -3 20 -1 20 5 0 14 34 22 115 29 39 3 76 10 83 15 8 7 17 7 27 -2 13
-11 15 -8 15 19 0 35 0 35 -85 16z"/>
<path d="M2255 3131 c-7 -13 7 -111 15 -106 5 3 6 -4 3 -15 -3 -11 -10 -20
-15 -20 -5 0 -8 -12 -6 -27 3 -24 8 -28 38 -31 62 -4 101 -13 96 -21 -3 -4 10
-40 29 -80 32 -66 37 -71 62 -68 19 3 27 9 25 21 -2 13 7 16 52 16 67 0 86 -7
86 -31 0 -15 10 -19 58 -22 31 -3 -17 -3 -108 -1 -91 2 -204 7 -252 10 -58 5
-88 3 -88 -3 0 -6 48 -13 118 -17 64 -4 167 -9 227 -12 118 -7 125 -8 125 -28
0 -9 -19 -12 -67 -12 l-68 1 -6 -35 -6 -35 -2 38 c-1 51 -24 44 -32 -9 l-6
-39 -2 43 c-1 34 -4 42 -20 42 -15 0 -21 -8 -24 -37 l-4 -38 -1 38 c-1 25 -7
37 -16 37 -10 0 -16 -13 -19 -37 l-4 -38 -1 38 c-2 27 -7 37 -19 38 -10 1 -53
3 -95 5 l-78 3 0 -30 c0 -16 5 -29 12 -29 9 0 9 -3 0 -12 -16 -16 -15 -58 1
-58 6 0 105 -3 219 -7 l207 -6 -1 32 c-1 34 -14 42 -21 14 -3 -12 -5 -9 -6 8
-1 20 4 26 16 25 10 0 18 5 18 12 0 6 5 11 10 10 6 -2 9 -5 9 -8 -1 -3 -4 -24
-8 -47 -5 -35 -3 -43 9 -43 12 0 15 13 15 63 0 63 19 122 20 62 1 -29 1 -29
16 -10 12 17 16 18 24 5 5 -8 6 -28 2 -45 -4 -16 -7 -42 -7 -57 0 -16 -5 -28
-12 -28 -7 0 -10 7 -7 15 4 8 1 15 -5 15 -6 0 -11 -7 -11 -15 0 -11 -13 -15
-52 -17 l-53 -1 50 -6 c35 -4 50 -11 50 -21 0 -11 -11 -14 -47 -11 l-48 3 -2
-164 c-1 -90 -4 -126 -5 -80 l-4 82 -49 0 c-35 0 -50 -4 -50 -13 0 -10 -32
-14 -137 -16 -75 -1 -141 -5 -145 -7 -4 -3 -8 -40 -8 -83 l0 -78 38 2 c124 9
507 23 480 17 -10 -2 -18 -9 -18 -16 0 -8 -15 -12 -42 -12 -24 0 -82 0 -130
-2 -86 -2 -87 -2 -91 -29 -4 -26 -4 -26 -6 5 -1 31 -2 32 -46 32 -31 0 -47 -5
-54 -17 -6 -11 -11 -13 -11 -5 0 7 -4 11 -9 7 -5 -3 -32 -6 -60 -6 l-51 -2 0
-44 c0 -44 0 -44 33 -41 33 3 73 -25 61 -43 -13 -21 365 6 382 27 6 8 24 14
40 14 16 0 46 3 67 6 l37 7 0 433 0 433 -25 27 c-27 29 -35 96 -14 110 19 11
-12 24 -61 24 -76 0 -352 31 -487 55 -13 2 -25 0 -28 -4z m225 -90 c0 -4 30
-11 68 -15 66 -7 118 -24 111 -38 -2 -4 5 -14 16 -22 17 -14 18 -17 5 -26 -8
-5 -20 -8 -27 -6 -6 3 -66 8 -132 12 -115 6 -154 18 -93 27 21 3 19 4 -11 6
-23 0 -36 -3 -32 -9 8 -12 -61 -12 -90 0 -15 6 -8 9 30 10 49 2 123 16 97 19
-7 0 -10 6 -7 11 3 6 -1 10 -10 10 -9 0 -14 -4 -11 -9 6 -10 -63 -26 -72 -17
-3 3 3 6 14 6 19 1 19 1 0 12 -15 8 -21 7 -28 -6 -12 -22 -27 -20 -21 3 6 25
26 29 114 25 51 -2 66 -1 49 5 l-25 9 28 1 c15 1 27 -3 27 -8z"/>
<path d="M4975 3074 c-88 -13 -221 -33 -295 -44 -74 -11 -145 -20 -157 -20
l-23 0 0 -465 0 -464 33 -5 c39 -6 380 -34 530 -43 l107 -6 -2 534 c-3 466 -5
534 -18 535 -8 1 -87 -9 -175 -22z m173 -509 c1 -280 -1 -512 -5 -516 -5 -5
-145 3 -313 16 -168 14 -308 25 -313 25 -4 0 -6 204 -5 452 l3 453 60 7 c100
13 426 58 485 67 30 5 62 8 70 7 13 -1 15 -66 18 -511z"/>
<path d="M4891 2696 c-12 -12 -21 -28 -21 -35 0 -12 -45 -61 -56 -61 -2 0 -4
16 -4 35 0 22 -5 35 -13 35 -10 0 -12 -11 -7 -42 5 -40 8 -43 33 -40 15 1 27
-2 27 -8 0 -5 -11 -10 -25 -10 -14 0 -25 -4 -25 -10 0 -5 -7 -10 -15 -10 -18
0 -40 -50 -27 -59 5 -3 11 -18 14 -33 4 -22 1 -28 -13 -28 -11 0 -19 7 -19 18
0 15 -3 14 -18 -4 -27 -34 -52 -37 -79 -13 -60 57 -13 -21 51 -83 32 -32 90
-39 100 -13 3 8 12 15 21 15 21 0 19 26 -6 66 -19 31 -19 35 -5 56 9 12 16 33
16 45 0 13 3 24 8 24 40 7 53 4 67 -17 8 -13 25 -24 37 -24 21 0 21 0 2 15
-20 15 -12 20 28 16 9 -1 20 3 24 10 10 17 -34 47 -62 41 -13 -2 -31 -1 -40 2
-14 5 -13 8 5 24 27 23 53 99 36 106 -7 2 -22 -6 -34 -18z"/>
<path d="M5650 2255 c0 -738 0 -745 20 -745 23 0 22 -11 22 173 0 159 -10 146
113 166 39 6 82 14 97 17 l28 6 0 531 c0 293 -4 538 -8 545 -7 11 -206 52
-254 52 -17 0 -18 -42 -18 -745z"/>
<path d="M1842 2610 c-1 -184 -2 -400 -3 -479 0 -92 3 -147 10 -154 13 -13 14
670 1 858 -5 79 -7 17 -8 -225z"/>
<path d="M3908 2873 c-23 -6 -25 -63 -3 -63 8 0 15 -4 15 -10 0 -5 -7 -10 -15
-10 -12 0 -15 -14 -15 -65 l0 -65 40 0 c23 0 40 -5 40 -11 0 -7 -15 -10 -40
-7 l-40 4 0 -223 0 -223 -22 0 c-13 0 -32 7 -42 15 -26 19 -47 19 -40 0 4 -8
11 -15 18 -15 6 0 17 -9 24 -20 7 -11 21 -20 33 -20 11 0 17 5 14 10 -3 6 -2
10 4 10 5 0 12 -4 15 -9 8 -12 110 13 150 38 80 50 145 193 146 322 0 65 -34
191 -65 237 -54 81 -143 125 -217 105z"/>
<path d="M2503 2543 c20 -2 37 -7 37 -11 -1 -22 -26 -27 -150 -27 l-135 0 -3
-73 -3 -72 196 1 195 1 0 94 0 94 -87 -2 c-49 -1 -71 -3 -50 -5z"/>
<path d="M217 2523 c-4 -3 -7 -129 -7 -280 0 -241 2 -273 16 -273 14 0 14 -2
0 -15 -8 -8 -19 -15 -25 -15 -6 0 -11 -6 -11 -14 0 -14 67 -32 78 -21 4 4 -4
14 -17 24 l-24 18 23 6 23 6 -6 268 c-4 147 -7 276 -7 286 0 17 -30 24 -43 10z"/>
<path d="M3458 2298 c-2 -101 -1 -187 0 -191 2 -5 13 -1 23 9 13 12 19 13 19
4 0 -6 6 -10 14 -7 15 6 44 -23 39 -39 -2 -6 7 -15 19 -22 26 -12 148 -32 202
-32 38 0 43 -8 25 -41 -6 -12 -19 -19 -32 -18 -58 5 -89 -1 -83 -16 3 -8 0
-15 -6 -15 -8 0 -8 -3 -3 -9 11 -10 127 -36 212 -47 l53 -7 14 35 c24 56 30
88 16 88 -6 0 -8 -4 -5 -10 3 -5 1 -10 -4 -10 -6 0 -11 9 -11 20 0 17 4 19 18
11 9 -5 56 -12 104 -16 69 -6 87 -4 90 6 2 11 20 12 94 6 76 -7 91 -12 90 -25
-1 -11 8 -18 27 -20 21 -3 27 -8 27 -28 0 -17 -4 -23 -12 -18 -7 4 -8 3 -4 -4
4 -7 -4 -23 -19 -36 l-26 -24 22 -4 c21 -3 23 -7 20 -58 -1 -30 -4 -57 -6 -59
-2 -2 -54 -5 -115 -8 -61 -2 -128 -10 -148 -17 l-37 -13 0 -79 c0 -43 3 -96 7
-116 7 -38 7 -38 -28 -38 -18 0 -77 14 -129 31 -76 24 -96 34 -93 47 3 13 24
20 95 31 90 14 92 15 108 50 20 46 17 56 -17 52 -48 -5 -68 7 -68 40 0 29 1
30 38 24 27 -5 33 -4 22 4 -8 6 -25 11 -37 11 -13 0 -23 5 -23 10 0 6 -11 10
-25 10 -14 0 -25 -3 -25 -7 0 -5 -60 -9 -133 -11 -106 -3 -162 2 -287 23 -85
14 -164 24 -176 21 -15 -4 -23 -17 -30 -53 -9 -45 -11 -48 -42 -49 -41 -1 -64
-20 -42 -34 8 -5 26 -10 40 -10 36 0 160 -31 160 -40 0 -4 -12 -11 -27 -15
-16 -3 -41 -12 -58 -20 -16 -7 -56 -18 -87 -25 -61 -14 -131 -6 -230 26 -48
16 -48 16 -48 60 0 40 -2 44 -24 44 -13 0 -27 6 -30 13 -3 8 -9 6 -17 -8 -7
-11 -26 -33 -43 -50 -25 -26 -106 -154 -106 -170 0 -3 19 -5 43 -5 35 -1 39
-2 23 -11 -10 -6 -32 -13 -50 -15 -17 -2 -62 -8 -101 -13 -38 -6 -110 -12
-160 -14 -70 -2 -90 -6 -90 -18 0 -19 -81 -21 -96 -2 -9 10 -15 10 -25 2 -7
-6 -18 -8 -23 -5 -5 4 -13 1 -16 -4 -4 -6 -19 -11 -33 -10 -52 4 -64 1 -58
-15 3 -9 0 -15 -9 -15 -8 0 -15 7 -15 15 0 8 -5 15 -11 15 -6 0 -9 -6 -6 -14
3 -8 -2 -20 -11 -28 -11 -9 -14 -9 -8 -1 5 9 2 11 -10 6 -16 -6 -15 -7 2 -20
17 -12 17 -13 -3 -13 -16 0 -19 -5 -16 -24 3 -13 0 -27 -6 -30 -6 -4 -11 -12
-11 -17 0 -6 5 -7 10 -4 6 3 10 2 10 -4 0 -5 -5 -13 -10 -16 -6 -4 -8 -10 -5
-15 3 -5 1 -11 -3 -14 -12 -7 -3 -167 9 -183 6 -6 20 -13 32 -15 26 -4 30 14
-40 -191 -65 -188 -65 -186 20 -181 l52 4 -60 -20 c-33 -11 -68 -20 -77 -20
-9 0 -27 -4 -40 -9 -13 -5 -60 -19 -106 -32 -45 -12 -81 -23 -79 -25 2 -2 93
19 202 47 125 32 210 49 229 45 17 -3 72 -6 121 -7 97 -3 131 -15 182 -66 15
-16 47 -41 71 -57 24 -16 56 -43 72 -60 24 -24 30 -26 30 -12 0 22 -55 76 -79
77 -11 0 -12 2 -3 6 11 4 10 8 -2 22 -8 9 -12 22 -8 28 5 8 19 4 47 -15 71
-48 85 -64 74 -83 -10 -19 5 -37 16 -19 3 5 10 10 14 10 9 0 74 -48 102 -75
12 -11 18 -12 27 -3 9 9 12 7 12 -10 0 -29 16 -28 24 0 7 22 7 22 15 3 5 -11
7 -23 4 -28 -7 -12 37 -67 53 -67 8 0 13 -4 10 -9 -6 -8 36 -67 58 -82 5 -4 5
-12 1 -18 -4 -8 -11 -9 -19 -2 -7 6 -17 6 -26 1 -12 -8 -8 -17 24 -47 34 -32
37 -38 22 -48 -24 -18 -20 -25 14 -25 20 0 30 5 30 15 0 8 5 15 10 15 6 0 10
-7 10 -15 0 -18 46 -21 53 -2 4 9 6 9 6 0 1 -8 15 -13 35 -13 l34 0 3 148 c2
81 2 257 -1 391 l-5 243 -39 16 c-31 12 -43 13 -58 3 -23 -15 -44 -5 -28 14 8
10 8 15 0 20 -14 9 -40 -24 -33 -42 3 -7 -2 -13 -11 -13 -9 0 -16 3 -16 8 0 4
-18 16 -40 26 -22 11 -40 23 -40 27 0 5 -7 6 -15 3 -17 -7 -33 25 -60 123 -16
55 -16 64 -2 77 8 8 20 39 27 68 22 98 15 91 79 84 62 -8 71 -9 118 -21 22 -5
33 -14 35 -29 2 -17 11 -22 46 -24 l43 -3 -2 72 -2 73 34 4 c19 2 192 35 384
73 193 39 364 72 380 75 71 13 531 105 543 109 9 3 2 25 -24 77 -44 89 -60
108 -90 108 l-24 0 -2 162 -3 162 -40 15 c-22 8 -42 18 -45 21 -22 26 -221 55
-205 30 3 -5 21 -10 38 -10 39 0 65 -14 47 -25 -6 -4 -14 -4 -17 -1 -3 3 -14
1 -24 -5 -15 -7 -19 -6 -19 5 0 14 -30 22 -118 31 -38 3 -44 1 -52 -21 -5 -13
-12 -24 -15 -24 -4 0 -3 5 0 10 3 6 -1 10 -10 10 -8 0 -23 16 -32 35 -9 19
-21 36 -27 37 -33 4 -42 2 -48 -12 -5 -11 -7 -10 -7 6 -1 30 -53 76 -77 67
-18 -7 -18 -6 -1 11 22 23 22 31 -5 58 -19 19 -21 19 -14 2 15 -36 18 -54 10
-55 -49 -7 -61 -4 -56 15 3 12 1 17 -5 13 -15 -9 -75 13 -90 32 -8 12 -8 18 0
23 7 4 1 15 -17 29 -33 26 -64 91 -47 97 6 2 11 13 11 25 -1 22 -1 22 -15 3
-8 -11 -15 -29 -16 -40 -1 -21 -1 -21 -9 -1 -4 11 -10 30 -15 43 -17 51 -24
12 -27 -160z m-340 -977 c1 -1 2 -14 2 -31 0 -19 -5 -30 -14 -30 -9 0 -12 -7
-9 -20 3 -11 9 -20 14 -20 5 0 9 -7 9 -16 0 -13 -6 -15 -32 -10 -18 4 -42 9
-53 10 -89 13 -106 18 -101 34 2 10 7 37 10 62 l7 46 82 -13 c45 -6 83 -12 85
-12z m-927 -361 c37 0 39 -2 39 -30 l0 -30 85 0 86 0 -6 -62 c-12 -131 -16
-149 -33 -155 -9 -4 -19 -10 -22 -13 -9 -13 -134 -51 -180 -56 -25 -3 -71 -1
-102 3 l-58 8 49 145 c68 202 69 203 87 196 9 -3 33 -6 55 -6z m389 -74 c79
-4 180 -18 184 -25 2 -3 7 -28 10 -56 3 -27 3 -44 0 -38 -3 7 -5 15 -5 18 1 3
-4 12 -11 19 -14 15 -28 12 -28 -5 0 -6 4 -8 9 -5 10 6 25 -24 16 -32 -3 -3
-5 1 -5 8 0 7 -3 10 -6 7 -4 -4 -20 3 -36 14 -15 11 -34 19 -41 16 -6 -2 -16
2 -22 9 -5 7 -38 15 -71 19 -49 5 -65 2 -78 -10 -12 -12 -16 -13 -16 -3 0 8
-3 9 -8 3 -4 -5 -13 -10 -19 -11 -32 -2 -35 -5 -30 -24 3 -11 1 -20 -4 -20
-10 0 -12 90 -2 115 5 15 14 16 57 10 28 -3 76 -8 106 -9z"/>
<path d="M21 2087 c-1 -16 -5 -26 -11 -22 -13 8 -13 -1 1 -27 8 -15 8 -19 0
-14 -7 5 -11 -9 -11 -42 0 -42 3 -51 21 -55 15 -4 20 -11 15 -22 -3 -9 -2 -13
4 -10 6 3 10 14 10 24 0 14 18 24 72 42 40 13 64 25 55 27 -10 2 -15 8 -12 13
3 5 -2 6 -12 3 -14 -5 -13 -2 4 14 19 17 20 21 7 26 -10 4 -13 2 -8 -6 4 -7 3
-8 -4 -4 -9 5 -9 13 -2 27 9 15 7 19 -6 19 -10 0 -26 -8 -37 -17 -16 -14 -19
-15 -15 -3 21 53 20 56 -2 31 l-21 -24 -6 24 -7 24 -7 -25 -6 -25 -11 25 -11
25 0 -28z"/>
<path d="M2617 1967 c26 -8 35 -19 53 -66 12 -31 31 -80 42 -108 l21 -53 78 0
c42 0 84 -3 93 -6 11 -4 16 0 16 14 0 17 -5 19 -44 15 -24 -3 -67 0 -95 7 -50
12 -51 13 -51 50 0 20 -3 64 -6 98 l-7 61 -65 -2 c-57 -1 -62 -3 -35 -10z"/>
<path d="M6170 1935 c7 -8 10 -18 7 -21 -3 -3 -2 -17 3 -30 9 -22 7 -24 -23
-25 -31 -1 -30 -2 8 -9 22 -4 68 -11 103 -14 l62 -7 0 49 c0 45 -2 50 -25 54
-24 5 -25 3 -27 -41 l-1 -46 -6 50 -6 50 -54 3 c-49 3 -53 1 -41 -13z"/>
<path d="M5725 1653 l0 -148 299 -50 299 -49 -4 -491 c-2 -269 -2 -542 2 -605
3 -63 5 231 5 655 l-1 769 -285 33 c-157 17 -292 32 -300 32 -13 1 -15 -21
-15 -146z"/>
<path d="M4994 1633 c6 -18 4 -21 -14 -16 -16 4 -23 0 -27 -15 -5 -22 -33 -39
-33 -21 0 7 -14 10 -36 7 -33 -4 -35 -2 -29 19 8 32 -2 29 -20 -7 -15 -29 -15
-30 5 -30 11 0 20 -4 20 -10 0 -5 -10 -9 -22 -7 -18 2 -23 -5 -31 -43 -5 -25
-15 -50 -24 -57 -18 -14 -11 -74 10 -91 20 -17 134 -32 243 -32 96 0 101 1
126 28 40 41 41 76 3 116 -14 15 -25 34 -25 42 0 7 -8 14 -19 14 -10 0 -26 11
-35 25 -9 14 -12 25 -6 25 21 0 9 16 -22 29 -18 8 -41 21 -52 30 -18 15 -18
15 -12 -6z"/>
<path d="M6181 1314 c-25 -9 -130 -49 -235 -89 -105 -40 -335 -127 -511 -194
-176 -67 -390 -149 -475 -182 -85 -33 -210 -81 -277 -107 l-123 -46 0 -348 0
-348 859 0 c602 0 862 3 866 11 11 16 5 283 -6 294 -5 5 -8 20 -8 35 1 23 2
23 8 -5 4 -16 7 27 6 97 0 69 -3 122 -6 116 -4 -7 -9 -7 -13 0 -3 6 -2 13 3
17 11 6 3 36 -13 47 -7 4 -5 9 4 13 11 4 14 18 13 48 -1 23 -3 171 -3 329 0
262 -2 288 -18 297 -10 7 -12 11 -4 11 7 0 10 5 7 10 -8 13 -21 12 -74 -6z"/>
<path d="M201 1259 c5 -23 7 -56 3 -75 -5 -25 -3 -34 7 -34 30 -1 681 94 670
98 -6 2 -70 -4 -143 -14 -73 -9 -146 -18 -163 -20 -16 -1 -79 -10 -139 -19
-63 -10 -111 -13 -115 -8 -3 5 -14 12 -24 16 -10 4 -16 11 -12 16 3 5 -4 13
-16 16 -11 4 -18 9 -16 12 8 7 -25 43 -35 37 -4 -3 -8 0 -8 5 0 6 -4 11 -9 11
-5 0 -5 -17 0 -41z"/>
<path d="M1253 1209 c-6 -6 -39 -12 -72 -13 l-61 -1 0 -32 c0 -40 -17 -44 -22
-6 -3 30 -23 39 -63 29 -24 -6 -40 -52 -24 -72 10 -12 2 -24 -17 -24 -8 0 -11
6 -8 15 4 8 1 15 -5 15 -11 0 -16 -25 -10 -45 7 -26 6 -112 -3 -128 -7 -14 -5
-24 8 -38 10 -11 18 -29 19 -42 1 -12 4 -28 6 -36 8 -27 -189 -66 -304 -60
-76 4 -84 -8 -18 -30 39 -12 41 -15 27 -30 -9 -10 -13 -21 -9 -24 3 -4 1 -7
-6 -7 -16 0 -3 -41 18 -57 33 -24 188 -3 501 67 25 6 54 12 65 15 11 2 92 25
180 51 153 45 239 84 216 99 -6 3 -11 25 -11 49 0 36 4 45 25 54 31 14 48 52
32 68 -7 6 -33 18 -59 27 l-47 16 -86 -42 c-47 -22 -85 -46 -85 -52 0 -18 -50
-42 -58 -28 -4 6 -29 14 -56 18 -43 7 -48 6 -43 -9 4 -9 2 -16 -3 -16 -11 0
-12 26 -10 183 1 53 0 97 -2 97 -2 0 -9 -5 -15 -11z"/>
<path d="M590 1130 c-19 -4 -80 -15 -135 -24 -126 -21 -215 -37 -237 -43 -14
-3 -18 -15 -18 -59 0 -30 3 -54 8 -54 4 0 43 9 87 21 99 25 108 27 173 38 29
6 66 16 81 24 18 9 34 11 44 5 15 -8 107 28 107 42 0 3 -14 12 -32 19 -18 8
-27 16 -20 19 18 6 14 22 -5 21 -10 -1 -34 -5 -53 -9z"/>
<path d="M100 541 c-8 -6 -18 -7 -23 -4 -4 3 -24 2 -43 -1 l-34 -7 0 -161 0
-160 38 7 c56 10 95 36 104 70 4 17 11 71 14 120 8 122 -9 165 -56 136z"/>
</g>
</svg>
