<?xml version="1.0" standalone="no"?>
<!DOCTYPE svg PUBLIC "-//W3C//DTD SVG 20010904//EN"
 "http://www.w3.org/TR/2001/REC-SVG-20010904/DTD/svg10.dtd">
<svg version="1.0" xmlns="http://www.w3.org/2000/svg"
 width="1024.000000pt" height="768.000000pt" viewBox="0 0 1024.000000 768.000000"
 preserveAspectRatio="xMidYMid meet">
<metadata>
Created by potrace 1.16, written by Peter Selinger 2001-2019
</metadata>
<g transform="translate(0.000000,768.000000) scale(0.100000,-0.100000)"
fill="#000000" stroke="none">
<path d="M15 3430 c17 -7 17 -9 3 -9 -17 -1 -18 -40 -18 -679 0 -514 3 -681
12 -690 9 -9 9 -12 0 -12 -9 0 -12 -233 -12 -1020 l0 -1020 5120 0 5120 0 0
1437 c-1 1130 -3 1435 -13 1423 -16 -21 -78 -21 -72 0 6 19 -11 47 -22 36 -4
-4 -11 -35 -15 -69 -5 -47 -5 -39 -3 31 3 55 0 92 -5 92 -6 0 -10 -3 -10 -7
-6 -124 -15 -189 -26 -201 -9 -8 -14 -9 -14 -2 0 14 -51 59 -67 60 -7 0 -13
-9 -13 -20 0 -25 -1 -25 -51 1 -23 11 -43 18 -45 16 -10 -9 9 -35 34 -46 21
-10 23 -14 11 -22 -10 -6 -10 -9 -1 -9 7 0 17 -12 23 -26 10 -29 3 -47 -10
-25 -6 10 -10 9 -14 -4 -4 -9 -3 -13 3 -10 6 3 10 -1 10 -9 0 -21 -26 -21 -34
0 -5 13 -9 14 -21 4 -8 -6 -20 -8 -27 -4 -33 21 -111 -10 -123 -47 -4 -10 -10
-19 -15 -19 -8 0 -25 75 -22 96 1 6 -4 16 -11 23 -18 14 -67 -22 -67 -50 0
-10 -5 -19 -11 -19 -6 0 -9 -9 -6 -20 4 -17 2 -18 -14 -9 -10 5 -19 15 -19 21
0 5 -9 8 -19 5 -11 -2 -32 4 -48 14 -21 15 -38 18 -66 13 -23 -3 -43 -1 -52 6
-8 6 -19 9 -24 6 -5 -4 -12 -2 -15 2 -3 5 7 15 22 21 24 11 25 14 9 23 -10 5
-24 7 -31 5 -8 -3 -30 -2 -50 3 -22 5 -38 4 -42 -2 -4 -5 -23 -7 -43 -4 -70
11 -90 12 -85 5 5 -9 -34 -18 -105 -24 -30 -2 -57 -8 -60 -13 -3 -5 -19 -12
-36 -15 -88 -17 -120 -26 -123 -35 -2 -6 -10 -8 -17 -6 -8 3 -30 1 -49 -6 -30
-10 -45 -29 -50 -65 0 -5 -11 -11 -23 -13 -13 -2 -23 -8 -23 -13 0 -6 -9 -7
-20 -4 -12 4 -20 2 -20 -5 0 -35 -75 -53 -133 -31 -14 6 -29 6 -38 0 -10 -6
-8 -9 11 -10 14 0 19 -3 10 -6 -8 -2 -30 -12 -49 -20 -22 -10 -48 -13 -76 -10
-39 6 -43 4 -47 -18 -3 -13 0 -26 6 -29 7 -3 6 -5 -2 -5 -7 -1 -18 11 -24 25
-11 24 -16 26 -54 20 -29 -4 -44 -2 -47 7 -3 9 -10 7 -24 -6 -14 -12 -36 -17
-76 -17 -49 0 -57 -3 -57 -19 0 -18 -1 -18 -89 -20 -14 -1 -36 -14 -53 -33
-23 -26 -28 -28 -28 -12 0 15 -2 16 -9 5 -5 -8 -16 -11 -26 -7 -13 4 -16 2
-12 -9 4 -8 2 -17 -3 -20 -6 -4 -10 -1 -10 4 0 14 -47 14 -55 1 -4 -6 -11 -8
-16 -5 -5 4 -12 -1 -15 -9 -3 -9 -17 -16 -30 -16 -14 0 -41 -7 -61 -15 -19 -8
-44 -15 -54 -15 -11 0 -19 -4 -19 -9 0 -6 -17 -12 -37 -14 l-38 -4 38 -1 c23
-1 36 -6 32 -12 -3 -5 1 -10 9 -10 24 0 19 -18 -6 -23 -13 -2 54 -5 147 -7
174 -2 288 -17 148 -19 -54 -1 -73 -4 -73 -15 0 -9 23 -15 83 -19 77 -5 145
-26 131 -40 -4 -3 5 -9 19 -12 23 -6 25 -10 22 -61 -1 -39 1 -52 8 -45 6 6 26
11 44 11 31 0 33 2 33 35 0 19 4 35 8 35 4 0 48 -9 98 -20 49 -11 112 -20 139
-20 28 0 86 -7 130 -15 44 -8 130 -21 190 -30 61 -8 140 -20 177 -25 37 -6 83
-10 104 -10 l37 0 -5 -50 c-3 -27 -1 -47 4 -44 4 3 8 14 8 25 0 11 4 28 9 38
11 20 0 20 296 -20 172 -24 187 -27 179 -40 -3 -5 -9 -7 -12 -5 -17 11 -122
16 -122 6 0 -5 7 -10 16 -10 8 0 22 -7 30 -15 12 -11 20 -12 39 -3 22 10 28 8
49 -15 14 -15 30 -27 36 -27 11 0 13 -30 2 -46 -4 -6 -33 -14 -65 -17 -47 -5
-59 -3 -64 10 -6 14 -7 14 -18 0 -10 -13 -18 -14 -48 -6 -20 5 -39 14 -42 19
-4 6 -19 10 -36 10 -21 0 -29 5 -30 18 0 11 -2 12 -6 4 -4 -10 -8 -10 -18 -2
-8 6 -29 9 -47 6 -32 -5 -85 2 -218 29 -36 8 -92 16 -125 20 -33 3 -90 15
-127 26 -37 11 -72 18 -78 14 -5 -3 -10 -24 -10 -45 0 -21 -4 -42 -10 -45 -5
-3 -10 -17 -10 -30 0 -13 -7 -31 -16 -39 -8 -9 -19 -39 -24 -68 -7 -43 -5 -57
8 -73 9 -11 18 -22 19 -24 1 -2 13 -5 26 -6 13 -2 53 -17 90 -34 36 -17 72
-31 79 -31 18 -1 48 -25 48 -39 0 -8 8 -10 20 -6 26 8 96 -14 116 -37 10 -10
24 -18 33 -18 9 0 27 -7 39 -16 13 -9 35 -19 49 -23 24 -6 25 -8 9 -23 -9 -9
-16 -21 -16 -26 0 -5 -8 -16 -19 -26 -17 -15 -23 -15 -77 -1 -32 8 -68 15 -80
15 -12 0 -35 7 -50 15 -20 10 -30 11 -33 3 -3 -9 24 -32 40 -33 3 0 36 -13 72
-30 47 -20 67 -35 67 -47 0 -22 2 -22 -46 1 -67 32 -182 81 -190 81 -4 0 -15
6 -23 13 -9 7 -34 19 -56 26 -22 7 -53 18 -70 26 -16 7 -88 34 -160 60 -71 26
-137 54 -146 61 -8 8 -23 14 -32 14 -16 0 -61 20 -152 69 -21 11 -44 21 -51
21 -6 0 -17 7 -24 15 -7 8 -21 15 -32 15 -26 0 -118 40 -118 51 0 5 -6 9 -12
9 -26 0 -158 64 -158 76 0 7 -8 13 -17 13 -10 -1 -38 7 -63 16 -44 16 -281
127 -350 165 -104 56 -183 86 -188 71 -2 -6 -14 -6 -30 1 -15 6 -47 10 -70 9
-26 -1 -54 5 -68 14 -14 9 -29 13 -34 10 -5 -3 -11 -1 -15 5 -8 12 -80 50 -96
50 -9 0 81 -75 146 -122 6 -4 44 -35 85 -70 132 -112 439 -348 550 -424 25
-17 88 -59 140 -95 120 -81 282 -202 299 -223 7 -9 18 -16 23 -16 10 0 90 -59
142 -105 6 -5 40 -30 76 -54 36 -25 76 -55 89 -68 13 -13 27 -23 31 -23 4 0 5
-11 2 -25 -5 -27 -1 -28 56 -25 40 2 41 -10 3 -39 -39 -30 -49 -54 -18 -47 12
3 16 3 9 0 -10 -5 -8 -12 9 -30 12 -13 20 -24 17 -24 -6 0 -22 12 -193 145
-49 39 -117 90 -150 114 -33 25 -66 51 -73 58 -8 7 -30 26 -50 41 -21 15 -39
29 -42 32 -6 6 -175 142 -291 235 -41 33 -127 98 -189 145 -100 75 -407 330
-515 428 -45 40 -95 75 -95 65 0 -3 -9 4 -20 17 l-20 23 0 -21 c0 -12 -5 -22
-11 -22 -5 0 -8 -4 -4 -9 9 -16 -25 -41 -55 -41 -28 0 -55 20 -28 20 8 1 6 6
-6 15 -12 9 -42 15 -77 15 -41 0 -58 4 -63 15 -3 9 -18 15 -35 15 -16 0 -31 6
-34 13 -6 15 -118 42 -126 30 -3 -6 -35 -25 -71 -44 -36 -18 -67 -36 -70 -40
-3 -3 -24 -15 -47 -26 -33 -16 -51 -19 -85 -13 -23 5 -46 6 -50 4 -4 -3 -21 5
-37 17 -16 12 -34 18 -40 14 -7 -4 -18 -1 -27 5 -12 11 -12 14 3 26 22 17 0
19 -26 2 -10 -6 -27 -8 -37 -4 -13 5 -15 9 -6 15 15 9 -56 7 -85 -3 -26 -8
-31 -26 -8 -26 24 0 18 -14 -14 -33 -31 -18 -96 -23 -106 -8 -3 6 3 14 12 20
10 6 15 11 11 11 -4 0 -35 -17 -70 -37 -55 -33 -70 -37 -123 -36 -47 1 -53 0
-30 -6 l30 -9 -32 -1 c-17 0 -39 -8 -48 -17 -20 -20 -215 -34 -215 -15 0 6 6
11 13 11 6 0 19 5 27 10 13 8 13 11 1 19 -17 11 -6 31 18 31 9 0 22 5 29 12 6
6 35 22 64 34 35 15 54 29 56 42 2 10 15 25 30 33 l27 14 -43 3 c-24 2 -72 -4
-108 -13 -76 -19 -200 -35 -304 -40 -43 -1 -76 -7 -78 -14 -2 -7 -43 -11 -115
-11 -62 0 -130 -5 -152 -10 -22 -6 -89 -12 -150 -15 -60 -3 -162 -12 -225 -20
-63 -8 -135 -15 -160 -15 -25 0 -50 -4 -55 -9 -6 -5 -39 -11 -75 -14 -36 -2
-57 -3 -47 0 43 11 9 19 -68 15 -59 -3 -85 -1 -85 7 0 6 18 11 44 11 35 0 45
4 49 19 3 14 20 22 63 31 54 11 95 21 212 53 95 26 13 36 -148 17 -102 -11
-389 -16 -515 -8 -49 3 -119 2 -155 -4 -61 -8 -281 -14 -380 -9 -44 3 -44 3
-15 12 17 5 52 12 79 14 27 3 53 8 58 11 4 3 50 14 101 24 81 16 87 19 47 20
-75 3 -222 1 -226 -3 -2 -2 -77 -3 -166 -2 -189 3 -333 -5 -1301 -66 -170 -10
-329 -19 -355 -19 -114 0 -7 10 358 34 507 33 652 44 720 56 30 5 118 12 194
15 76 2 141 7 144 10 3 3 -1 5 -8 5 -11 0 -11 3 -2 12 8 8 15 8 27 -2 8 -7 18
-10 22 -6 3 3 1 6 -6 6 -7 0 -9 4 -6 10 3 5 20 9 38 9 18 -1 86 4 152 10 66 5
167 13 225 17 293 17 370 25 345 34 -13 4 1 10 43 17 57 9 62 8 62 -9 0 -14 7
-17 35 -15 19 1 35 7 35 14 0 9 8 9 30 1 36 -12 203 -4 208 10 2 6 12 8 22 5
12 -3 20 0 20 7 0 7 -11 10 -27 8 -20 -2 -29 2 -31 16 -3 16 1 17 37 11 27 -4
41 -3 41 4 0 7 21 11 52 11 28 0 49 3 46 6 -3 3 -118 5 -256 5 -190 0 -265 -4
-316 -15 -37 -9 -79 -15 -94 -15 -27 2 -27 2 -2 6 14 3 57 13 95 23 56 14 115
18 305 19 129 1 237 4 240 7 2 3 -117 4 -265 2 -222 -3 -283 -7 -341 -22 -65
-17 -70 -20 -66 -42 2 -13 1 -31 -2 -41 -6 -14 -9 -14 -23 6 -16 24 -19 39
-22 99 0 17 -5 32 -11 32 -15 0 -11 -93 5 -114 28 -38 8 -50 -28 -18 -11 9
-18 12 -14 7 3 -6 2 -17 -2 -24 -7 -11 -13 -9 -30 8 -17 17 -21 18 -21 5 0
-12 -6 -15 -24 -10 -14 3 -28 2 -31 -4 -11 -18 -43 8 -54 42 -12 40 -17 112
-8 116 30 10 37 0 37 -52 0 -31 5 -58 13 -64 9 -8 11 3 7 51 -4 46 -1 67 10
80 18 21 36 22 44 2 3 -8 12 -15 21 -15 12 0 15 -12 15 -54 0 -30 5 -58 10
-61 6 -4 10 15 10 49 0 43 5 61 20 76 11 11 23 20 28 20 15 -1 44 -52 39 -71
-4 -15 -1 -19 11 -15 9 2 45 10 80 16 34 7 62 17 62 22 0 5 5 6 10 3 6 -3 64
-3 129 1 101 6 118 9 116 23 -1 11 -16 18 -45 22 -24 3 -48 12 -54 20 -14 18
-57 13 -73 -9 -12 -14 -15 -14 -36 6 -13 12 -29 22 -35 22 -7 0 -12 5 -12 10
0 6 -5 10 -11 10 -6 0 -24 9 -40 21 -20 14 -29 16 -29 7 0 -10 -3 -9 -10 2 -8
13 -11 12 -25 -5 -15 -20 -15 -20 -36 8 -11 15 -25 27 -31 27 -5 0 -30 20 -55
45 -24 25 -51 45 -59 45 -9 0 -13 -4 -9 -9 3 -5 1 -12 -5 -16 -5 -3 -10 1 -10
9 0 9 -6 17 -12 17 -7 1 -20 3 -28 3 -29 3 -65 28 -91 62 -38 49 -99 89 -110
72 -6 -10 -16 -4 -39 24 -20 24 -36 35 -46 31 -16 -6 -68 40 -58 50 9 8 -66
29 -82 23 -8 -3 -33 12 -61 40 -26 24 -57 47 -69 50 -27 7 -54 59 -54 104 0
21 -10 45 -31 69 -16 20 -39 46 -49 59 -10 12 -30 22 -44 22 -14 0 -26 5 -26
12 0 8 -6 6 -17 -5 -16 -15 -19 -14 -51 24 -19 22 -40 38 -48 35 -7 -3 -27 2
-43 10 -17 9 -35 12 -41 9 -6 -4 -16 -2 -23 3 -7 5 -32 12 -57 15 -25 2 -72
10 -104 16 -32 7 -67 10 -77 8 -11 -3 -19 -1 -19 4 0 5 5 9 10 9 6 0 6 7 -1
18 -13 21 -75 42 -124 42 -19 0 -35 5 -35 10 0 6 -14 10 -31 10 -26 0 -30 -3
-26 -20 3 -10 0 -21 -6 -23 -6 -2 -11 -20 -11 -40 -1 -32 -5 -39 -26 -44 -14
-3 -30 -13 -36 -22 -10 -13 -12 -12 -19 8 -5 17 -10 20 -18 12 -6 -6 -19 -11
-29 -11 -11 0 -20 -10 -23 -27 -4 -16 -10 -36 -16 -45 -5 -10 -9 -25 -9 -34 0
-26 -24 -9 -34 24 -7 25 -14 31 -32 30 -13 -1 -24 -6 -24 -10 0 -4 -7 -5 -15
-2 -8 4 -15 12 -15 20 0 12 -12 18 -32 16 -3 -1 -12 5 -18 13 -7 8 -22 15 -34
15 -12 0 -28 6 -35 13 -11 10 -14 10 -18 0 -12 -32 -93 -1 -93 35 0 21 -62 13
-87 -10 -19 -18 -26 -20 -32 -9 -7 10 -12 8 -24 -10 -14 -19 -20 -21 -40 -12
-38 18 -68 -12 -44 -44 10 -14 5 -16 -32 -13 -14 1 -21 -2 -17 -9 12 -18 -16
-12 -31 7 -7 9 -22 33 -32 52 -21 38 -55 80 -65 80 -3 0 -6 -9 -6 -20 0 -13
-7 -20 -20 -20 -11 0 -20 5 -20 11 0 6 -6 9 -12 6 -7 -2 -12 -10 -10 -17 2 -7
-1 -16 -5 -19 -5 -3 -16 -18 -26 -33 -24 -38 -37 -35 -37 7 0 28 -4 35 -19 35
-11 0 -26 -9 -34 -20 -14 -21 -15 -21 -21 5 -5 21 -10 24 -21 15 -8 -7 -15 -7
-19 -1 -11 16 -36 1 -36 -22 0 -21 0 -21 -20 1 -32 34 -43 28 -35 -18 4 -26 3
-40 -4 -40 -6 0 -11 -7 -11 -15 0 -8 -7 -15 -15 -15 -8 0 -15 -9 -15 -19 0
-14 -9 -21 -30 -25 -74 -15 -94 -17 -84 -9 18 12 11 50 -11 67 -11 9 -15 16
-8 16 6 0 9 8 6 18 -2 10 5 26 16 36 16 14 23 16 41 6 18 -10 24 -9 31 1 5 8
9 18 9 22 0 5 9 6 20 2 11 -3 24 -4 29 0 14 8 2 35 -15 35 -7 0 -19 9 -26 19
-8 11 -27 25 -43 33 -17 7 -45 23 -64 35 -19 13 -48 23 -65 22 -26 0 -28 -2
-11 -9z m2625 -1085 c0 -8 7 -15 15 -15 12 0 15 -13 15 -57 1 -35 6 -66 15
-77 35 -46 1 -65 -34 -20 -16 20 -21 41 -21 85 0 46 -3 59 -15 59 -17 0 -18
-5 -15 -70 1 -24 8 -53 16 -64 19 -27 18 -36 -5 -36 -32 0 -51 43 -51 115 0
58 2 65 20 65 11 0 20 7 20 15 0 8 9 15 20 15 11 0 20 -7 20 -15z m-416 -794
c25 -10 12 -17 -44 -26 -25 -3 -79 -13 -120 -21 -288 -53 -420 -74 -474 -73
-99 1 -47 14 274 69 162 28 302 52 310 54 24 6 34 5 54 -3z m2706 -89 c0 -5
-12 -15 -27 -23 -16 -8 -72 -40 -126 -71 -98 -57 -99 -58 -178 -58 -43 0 -79
4 -79 9 0 5 53 37 118 71 64 34 121 66 127 71 11 11 165 12 165 1z m-2340
-1238 l45 -11 -40 -8 c-22 -5 -46 -14 -53 -22 -13 -12 -54 -18 -114 -16 -16 1
-28 -3 -28 -7 0 -5 -27 -6 -61 -4 -48 4 -63 2 -73 -11 -6 -9 -32 -21 -56 -26
-24 -6 -47 -15 -51 -20 -3 -5 -27 -11 -52 -12 -26 -2 -50 -6 -53 -10 -10 -10
-24 -9 -24 2 0 5 8 11 18 15 9 3 76 37 147 75 l130 69 110 -1 c61 -1 130 -6
155 -13z"/>
<path d="M4827 2382 c-7 -12 -2 -110 6 -118 4 -4 2 -13 -4 -21 -9 -10 -4 -13
25 -13 20 0 36 -4 36 -10 0 -5 -16 -10 -35 -10 -54 0 -46 -27 11 -36 52 -7
391 0 400 9 11 10 13 151 2 170 -7 14 -16 17 -31 12 -25 -8 -86 -7 -99 2 -5 3
-71 7 -146 10 -75 2 -142 6 -149 8 -7 2 -14 1 -16 -3z"/>
</g>
</svg>
